<svg viewBox="0 0 576 512" version="1.1" id="svg1" sodipodi:docname="cart-shopping-solid.svg" inkscape:version="1.3.2 (1:1.3.2+202311252150+091e20ef0f)" xmlns:inkscape="http://www.inkscape.org/namespaces/inkscape" xmlns:sodipodi="http://sodipodi.sourceforge.net/DTD/sodipodi-0.dtd" xmlns="http://www.w3.org/2000/svg" xmlns:svg="http://www.w3.org/2000/svg"><defs id="defs1" /><sodipodi:namedview id="namedview1" pagecolor="#ffffff" bordercolor="#000000" borderopacity="0.25" inkscape:showpageshadow="2" inkscape:pageopacity="0.0" inkscape:pagecheckerboard="0" inkscape:deskcolor="#d1d1d1" inkscape:zoom="1.0659722" inkscape:cx="288" inkscape:cy="276.74267" inkscape:window-width="1440" inkscape:window-height="836" inkscape:window-x="0" inkscape:window-y="0" inkscape:window-maximized="1" inkscape:current-layer="svg1" /><path d="M 0,24 C 0,10.7 10.7,0 24,0 h 45.5 c 22,0 41.5,12.8 50.6,32 l 455.68485,5.987785 C 575.78485,37.987785 457.67935,288 459.2,288 H 170.7 l 5.4,28.5 c 2.2,11.3 12.1,19.5 23.6,19.5 l 303.48933,-2.27565 v 48 L 199.7,384 C 165.10097,384.25943 135.4,359.4 129,325.5 L 77.4,54.5 C 76.7,50.7 73.4,48 69.5,48 H 24 C 10.7,48 0,37.3 0,24 Z m 164.98941,413.73106 c 0,-15.04762 12.19851,-27.24611 27.24613,-27.24611 15.04762,0 27.24612,12.19849 27.24612,27.24611 0,15.04764 -12.1985,27.24612 -27.24612,27.24612 -15.04762,0 -27.24613,-12.19848 -27.24613,-27.24612 z m 262.25713,-3.40411 c 0,-15.04762 12.19851,-27.24611 27.24613,-27.24611 15.04762,0 27.24612,12.19849 27.24612,27.24611 0,15.04764 -12.1985,27.24612 -27.24612,27.24612 -15.04762,0 -27.24613,-12.19848 -27.24613,-27.24612 z" id="path1" sodipodi:nodetypes="ssscccccsccsccsssssssssssss" /></svg>