<svg xmlns="http://www.w3.org/2000/svg" width="96" height="96" viewBox="0 0 25.4 25.4" xmlns:v="https://vecta.io/nano"><path d="M6.417 23.72c-.65-.173-1.185-.555-1.56-1.116-.354-.529-.481-.962-.478-1.633.002-.467.02-.591.138-.909.075-.203.136-.413.135-.467A1276.04 1276.04 0 0 0 2.656 9.357c-.026-.11-.034-.111-.915-.111-.99 0-1.136-.034-1.335-.313-.082-.114-.11-.223-.11-.424s.028-.31.11-.424c.211-.296.308-.313 1.732-.313 1.833 0 1.694-.119 2.071 1.786l.274 1.385 7.15.025 7.381.114a1.61 1.61 0 0 1 .954 1.218l.031.226-.485.031c-.794.051-1.605.281-2.402.683a6.66 6.66 0 0 0-2.971 3.123c-.42.968-.561 1.713-.537 2.828l.017.774H9.938c-3.448 0-3.686.006-3.75.086-.365.461-.44 1.054-.198 1.548a1.54 1.54 0 0 0 .317.429c.371.305.249.297 4.409.299l3.789.002.221.33a6.86 6.86 0 0 0 .609.736l.388.406-4.518-.003-4.788-.075zM5.729 5.399l.09-4.458c.107-.2.36-.347.597-.347.114 0 .473.142 1.064.422l.892.422.707-.406c.975-.56.938-.56 1.917-.024l.768.421.781-.42c.996-.536.96-.536 1.918.02l.693.403.901-.424c.799-.376.925-.422 1.112-.401.261.029.43.136.543.344.081.148.088.452.1 4.449l.013 4.289h-.714-.714l-.013-3.638-.013-3.638-.516.246c-.736.351-.788.346-1.641-.147l-.724-.393s-.375.179-.781.397c-.972.524-.943.524-1.89 0l-.761-.397s-.353.177-.73.393c-.861.493-.909.497-1.659.147l-.546-.246c-.011 0-.019 1.637-.019 3.638v3.638h-.688-.688zm2.983 3.449a.76.76 0 0 1-.361-.715c.08-.495.636-.764 1.054-.509.486.296.464.989-.038 1.242-.222.111-.42.106-.655-.018zm2.294-.066a.61.61 0 0 1-.267-.848c.197-.314.202-.315 2.242-.299l1.842.014.154.154a.6.6 0 0 1-.176.98c-.243.101-3.562.101-3.795-.001zM8.694 5.955c-.33-.201-.43-.54-.268-.907.084-.189.143-.248.332-.332.494-.219 1.003.096 1.003.622 0 .537-.615.892-1.066.617zm2.261-.098c-.421-.259-.385-.877.061-1.064.246-.103 3.538-.102 3.784.001a.6.6 0 0 1 .176.98l-.154.154-1.855.013c-1.773.012-1.862.009-2.013-.084z"/><path d="M20.076 14.121c-.408-.004-.816.033-1.135.113a4.86 4.86 0 0 0-2.663 1.692c-1.515 1.893-1.368 4.644.338 6.36.729.733 1.442 1.121 2.485 1.352.324.072.561.089 1.057.075.768-.021 1.27-.138 1.926-.448.548-.258.807-.433 1.228-.827a4.81 4.81 0 0 0 1.279-5.073c-.526-1.542-1.764-2.683-3.376-3.11-.323-.086-.732-.131-1.14-.135zm1.809 2.533a.89.89 0 0 1 .549.18c.252.204.38.521.334.833-.034.236-.06.265-1.592 1.804l-1.69 1.635c-.193.102-.622.09-.802-.023-.081-.051-.505-.455-.942-.897-.848-.858-.951-1.022-.876-1.386.109-.531.687-.856 1.188-.669.076.028.343.255.594.503l.455.452 1.143-1.138 1.311-1.221c.096-.048.211-.071.329-.072z" fill="#0f0"/><path d="M21.885 16.654c-.118 0-.233.024-.329.072s-.682.595-1.311 1.221l-1.143 1.138-.455-.452c-.25-.248-.518-.475-.594-.503-.5-.187-1.078.139-1.188.669-.075.364.028.528.876 1.386l.942.897c.179.112.609.125.802.023.073-.039.834-.775 1.69-1.635 1.532-1.539 1.558-1.568 1.592-1.804.045-.312-.082-.629-.334-.833a.89.89 0 0 0-.549-.18z" fill="#f9f9f9"/></svg>