<svg xmlns="http://www.w3.org/2000/svg" width="241.999" height="255.662" viewBox="0 0 64.029 67.644" xmlns:v="https://vecta.io/nano"><path d="M33.261 2.423L3.183 13.948 2.35 52.967 31.567 65l30.005-12.156-.254-37.61z" fill="#fdeb34" stroke="#000" stroke-width=".159" stroke-linejoin="round" paint-order="stroke fill markers"/><path d="M16.404 61.462C8.182 58.076 1.128 55.042.728 54.721L0 54.136V33.83 13.523l.595-.55C1.467 12.168 31.628-.151 32.353.002c1.338.282 30.534 12.467 31.081 12.972l.595.549v20.18 20.18l-.595.66c-.417.462-5.16 2.531-15.802 6.894l-15.743 6.209c-.295-.014-7.263-2.796-15.485-6.183zm13.297-33.233c-.217-.196-11.291-4.744-11.551-4.744-.087 0-.158 2.196-.158 4.88 0 4.679-.025 4.909-.595 5.572-.785.912-2.085.969-2.978.13-.649-.61-.651-.624-.722-6.567l-.071-5.956-4.698-1.925-4.698-1.925.068 17.106.068 17.106 12.7 5.218 12.7 5.218.068-16.967-.132-17.148zM48.022 56.7l11.577-4.872c.11-.107.17-7.819.132-17.137l-.068-16.942-12.7 5.217-12.7 5.217-.068 17.094-.068 17.094 1.259-.498L48.022 56.7zm-4.031-37.071l12.165-5.105c.181-.175-10.709-4.802-11.309-4.805-.553-.002-23.651 10.196-23.472 10.364.148.139 10.298 4.408 10.577 4.449.039.006 5.456-2.201 12.039-4.904zM27.44 12.576c6.433-2.802 11.612-5.179 11.509-5.282-.419-.419-6.802-2.886-7.199-2.783-1.424.372-24.037 9.858-23.877 10.015.239.234 7.232 3.114 7.605 3.131.146.007 5.528-2.28 11.962-5.082z"/></svg>