<svg width="16" height="16" fill="currentColor" class="bi bi-journal-text" viewBox="0 0 16 16" version="1.1" id="svg3" sodipodi:docname="record.svg" inkscape:version="1.3.2 (091e20e, 2023-11-25)" xmlns:inkscape="http://www.inkscape.org/namespaces/inkscape" xmlns:sodipodi="http://sodipodi.sourceforge.net/DTD/sodipodi-0.dtd" xmlns="http://www.w3.org/2000/svg" xmlns:svg="http://www.w3.org/2000/svg"><defs id="defs3" /><sodipodi:namedview id="namedview3" pagecolor="#505050" bordercolor="#eeeeee" borderopacity="1" inkscape:showpageshadow="0" inkscape:pageopacity="0" inkscape:pagecheckerboard="0" inkscape:deskcolor="#505050" inkscape:zoom="25.5" inkscape:cx="6.4509804" inkscape:cy="7.8823529" inkscape:window-width="1920" inkscape:window-height="1016" inkscape:window-x="0" inkscape:window-y="0" inkscape:window-maximized="1" inkscape:current-layer="svg3" /><g inkscape:groupmode="layer" id="layer1" inkscape:label="Layer 1"><rect style="fill:#fbfbfb;fill-opacity:1" id="rect3" width="12.795955" height="14.538297" x="1.606005" y="0.75735295" ry="0.98391545" rx="0" /></g><path d="m 3,0 h 10 a 2,2 0 0 1 2,2 v 12 a 2,2 0 0 1 -2,2 H 3 A 2,2 0 0 1 1,14 v -1 h 1 v 1 a 1,1 0 0 0 1,1 h 10 a 1,1 0 0 0 1,-1 V 2 A 1,1 0 0 0 13,1 H 3 A 1,1 0 0 0 2,2 V 3 H 1 V 2 A 2,2 0 0 1 3,0" id="path2" /><path d="M 1,5 V 4.5 a 0.5,0.5 0 0 1 1,0 V 5 h 0.5 a 0.5,0.5 0 0 1 0,1 h -2 a 0.5,0.5 0 0 1 0,-1 z M 1,8 V 7.5 a 0.5,0.5 0 0 1 1,0 V 8 h 0.5 a 0.5,0.5 0 0 1 0,1 h -2 a 0.5,0.5 0 0 1 0,-1 z m 0,3 v -0.5 a 0.5,0.5 0 0 1 1,0 V 11 h 0.5 a 0.5,0.5 0 0 1 0,1 h -2 a 0.5,0.5 0 0 1 0,-1 z" id="path3" /></svg>