<svg xmlns="http://www.w3.org/2000/svg" width="223.174" height="223.442" viewBox="0 0 59.048 59.119" xmlns:v="https://vecta.io/nano"><path d="M39.117 54.74c-9.309-2.195-12.644-14.564-5.777-21.43 4.959-4.959 13.075-4.959 18.034 0 9.096 9.096.342 24.4-12.257 21.43zm7.185-4.361c7.922-2.352 4.879-12.286-3.763-12.286-1.598 0-1.598 0-.978-.659 1.248-1.329.44-3.398-1.327-3.398-1.233 0-6.168 4.939-6.168 6.174s4.935 6.174 6.168 6.174c1.767 0 2.575-2.069 1.327-3.398-.898-.956 3.401-1.038 4.417-.084 1.371 1.288.51 3.399-1.534 3.763-2.215.394-2.656 3.06-.641 3.877.767.311.943.3 2.499-.163zm-41.47-4.431c-.937-.998-.902-40.264.037-41.146.59-.554.823-.575 6.338-.575h5.726l.078 7.564c.103 10.019.321 10.303 5.351 6.988 3.39-2.235 2.757-2.235 6.009 0 5.115 3.515 5.519 2.97 5.519-7.448V4.227h5.775c7.782 0 6.925-1.421 6.925 11.484v10.259l-1.124-.202c-11.471-2.062-21.731 8.198-19.669 19.669l.202 1.124H15.704c-10.296 0-10.296 0-10.871-.612zM21.19 9.519V4.227h4.233 4.233v5.292c0 2.91-.044 5.292-.097 5.292s-.896-.536-1.873-1.191-1.995-1.191-2.263-1.191-1.287.536-2.263 1.191-1.819 1.191-1.873 1.191-.097-2.381-.097-5.292z" fill="#fdf946"/><path d="M40.282 58.973c-4.583-.586-9.172-3.339-11.704-7.019l-.777-1.129-11.441-.082C-1.337 50.617.024 52.729.024 25.394.024 2.662-.003 2.852 3.504.91 5.359-.118 44.94-.365 46.962.638c3.627 1.8 3.715 2.161 3.811 15.691l.082 11.441 1.124.773c14.168 9.748 5.379 32.614-11.696 30.429zm5.383-4.306c9.417-2.519 12.609-14.458 5.71-21.357-4.959-4.959-13.075-4.959-18.034 0-9.126 9.126-.143 24.692 12.324 21.357zm-1.861-4.125c-2.015-.817-1.574-3.482.641-3.877 2.044-.364 2.905-2.475 1.534-3.763-1.015-.954-5.315-.872-4.417.084 1.248 1.329.44 3.398-1.327 3.398-1.233 0-6.168-4.939-6.168-6.174s4.935-6.174 6.168-6.174c1.767 0 2.575 2.069 1.327 3.398-.619.659-.619.659.978.659 5.918 0 9.245 3.439 7.877 8.143-.826 2.842-4.432 5.189-6.614 4.305zm-18.006-5.106c-2.062-11.471 8.198-21.731 19.669-19.669l1.124.202V15.711c0-12.904.857-11.484-6.925-11.484H33.89v7.104c0 10.417-.404 10.963-5.519 7.448-3.252-2.235-2.618-2.235-6.009 0-5.03 3.315-5.248 3.03-5.351-6.988l-.078-7.564h-5.726c-7.94 0-6.951-3.008-6.951 21.13 0 24.535-1.798 21.204 11.446 21.204h10.296zM23.16 13.62c.977-.655 1.995-1.191 2.263-1.191s1.287.536 2.263 1.191 1.819 1.191 1.873 1.191.097-2.381.097-5.292V4.227h-4.233-4.233v5.292c0 2.91.044 5.292.097 5.292s.896-.536 1.873-1.191z"/></svg>