<svg width="204.63" height="204.711" viewBox="0 0 54.142 54.163" xml:space="preserve" xmlns="http://www.w3.org/2000/svg"><path d="M101.368 76.525c-.428 0-.855.875-1.94 2.625-2.086 3.362-1.78 3.145-5.805 4.118-3.704.894-3.621.512-.835 3.831l2.274 2.709-.166 2.409a99.443 99.443 0 0 1-.32 3.696v.001c-.092.784-.052 1.25.104 1.19.14-.054 1.699-.685 3.462-1.403l3.206-1.305 3.38 1.344c4.03 1.6 3.589 1.893 3.26-2.16-.32-3.93-.416-3.64 2.273-6.805 2.436-2.866 2.518-2.62-1.16-3.508-4.016-.97-3.687-.736-5.786-4.113-1.09-1.752-1.519-2.629-1.947-2.629z" style="fill:#fedf23;stroke:#000;stroke-width:1.6;stroke-linecap:round;stroke-linejoin:round;paint-order:markers fill stroke" transform="translate(-75.03 -58.773)"/><path d="m84.525 60.89-1.437.42c-2.96.866-5.03 2.685-6.438 5.654l-.82 1.732v35.719l.84 1.773c1.351 2.853 3.987 5.05 6.898 5.75.548.131 8.759.218 18.323.194l17.33-.044 1.732-.82c2.97-1.408 4.788-3.479 5.653-6.438l.42-1.437V78.129l-1.52.546c-10.469 3.76-20.323-7.029-15.823-17.321l.202-.463h-12.68zm15.554 11.113h1.196c1.791 0 2.48.579 4.471 3.753 2.204 3.514 1.737 3.165 5.405 4.053 3.927.95 4.422 1.214 5.08 2.704l.537 1.212-.306 1.02c-.183.61-1.213 2.085-2.559 3.663l-2.253 2.643.286 3.585.287 3.586-.449.945c-1.063 2.241-2.848 2.431-7.03.75-1.63-.655-3.151-1.19-3.382-1.19-.231 0-1.753.535-3.382 1.19-4.234 1.702-6.082 1.464-7.03-.906l-.407-1.016.271-3.457.272-3.456-2.273-2.713c-4.266-5.092-3.642-7.027 2.76-8.566 3.653-.878 3.313-.63 5.302-3.85.888-1.437 1.973-2.913 2.41-3.281z" style="fill:#fedf23;stroke:#000;stroke-width:1.6;stroke-linecap:round;stroke-linejoin:round;paint-order:markers fill stroke" transform="translate(-75.03 -58.773)"/><path style="fill:#fedf23;fill-opacity:1;stroke:#000;stroke-width:1.6;stroke-linecap:round;stroke-linejoin:round;stroke-dasharray:none;stroke-opacity:1;paint-order:markers fill stroke" d="M121.227 59.573a7.144 7.144 0 0 0-7.145 7.144 7.144 7.144 0 0 0 7.145 7.144 7.144 7.144 0 0 0 7.144-7.144 7.144 7.144 0 0 0-7.144-7.144zm-.002 2.759c.164 0 .328.335.745 1.006.803 1.291.677 1.202 2.213 1.573 1.407.34 1.375.245.443 1.342-1.028 1.21-.991 1.1-.869 2.603.126 1.55.294 1.438-1.247.826l-1.293-.515-1.226.5c-.675.274-1.27.516-1.324.536-.06.023-.075-.155-.04-.455v0c.032-.271.087-.908.122-1.414l.064-.922-.87-1.036c-1.066-1.27-1.098-1.123.32-1.465 1.539-.372 1.422-.289 2.22-1.575.415-.67.578-1.005.742-1.004z" transform="translate(-75.03 -58.773)"/></svg>