<svg width="35" height="36" viewBox="0 0 9.2604169 9.525" version="1.1" id="svg1" xmlns="http://www.w3.org/2000/svg" xmlns:svg="http://www.w3.org/2000/svg"><defs id="defs1" /><g id="layer1"><path d="M 0.03824056,0.2811198 V 9.5193157 H 8.178829 C 7.9409915,9.4972934 7.7107224,9.452046 7.4868816,9.3906414 7.3538717,9.3541538 7.2229901,9.3125719 7.095691,9.2635174 7.081241,9.2579474 7.066138,9.2537374 7.051766,9.2480144 7.048536,9.2467244 7.045176,9.2456944 7.041946,9.2443944 5.8541337,8.7678445 4.9486316,7.747749 4.6250407,6.4884929 4.5432066,6.170033 4.4948391,5.8377388 4.4927491,5.4937216 c 7e-5,-0.00975 0.00155,-0.019169 0.00155,-0.028939 V 4.0643515 c 0,-0.00908 -0.00149,-0.017812 -0.00155,-0.026872 C 4.4790835,2.0603141 2.9773905,0.45541042 1.0443807,0.2811198 H 0.3462321 0.2940389 0.16639811 Z" style="display:inline;fill:#ffffff;fill-opacity:1" id="path18" /><path d="m 0.0253216,-1e-7 v 0.0552938 0.225826 h 0.3209107 0.6981486 c 1.9330195,0.1742915 3.4347028,1.7791844 3.4483684,3.7563599 6.26e-5,0.00906 0.00155,0.017796 0.00155,0.026872 v 1.4004313 c 0,0.00977 -0.00148,0.019185 -0.00155,0.028939 0.00209,0.3440189 0.050457,0.6763098 0.1322916,0.9947713 0.3235925,1.2592624 1.229087,2.2793492 2.4169068,2.7559042 0.00323,0.0013 0.00659,0.00233 0.00982,0.00362 0.3897186,0.155186 0.8081541,0.2537426 1.2469524,0.2811198 H 8.8144494 9.2402632 V 9.4800415 9.244397 H 9.0015181 8.9591434 8.1116499 C 6.2337425,9.0275373 4.785311,7.4567698 4.7583661,5.5226603 c -2.542e-4,-0.018251 -0.00258,-0.035946 -0.00258,-0.05426 V 4.0664184 c 0,-0.018837 0.00231,-0.037041 0.00258,-0.05581 C 4.7540361,3.6763605 4.7059801,3.3536113 4.6260745,3.0437418 4.2989477,1.7751579 3.3797244,0.7509374 2.1760948,0.2811197 1.7170768,0.1019493 1.219059,-1e-7 0.695565,-1e-7 0.667007,-1e-7 0.638706,4.354e-4 0.610299,0.0010299 0.624503,7.309e-4 0.638432,1.466e-4 0.652674,-1e-7 Z" style="fill:#000000;fill-opacity:1;stroke:none;stroke-opacity:1" id="path10" /></g></svg>