<svg xmlns="http://www.w3.org/2000/svg" width="96" height="96" viewBox="0 0 25.4 25.4" xmlns:v="https://vecta.io/nano"><circle cy="12.751" cx="12.648" r="12.561"/><path d="M18.551 4.177c.469-.195 1.005-.086 1.364.27l2.502 2.502a1.25 1.25 0 0 1 0 1.767l-2.502 2.502c-.36.36-.895.465-1.364.27a1.25 1.25 0 0 1-.774-1.157V9.08h-1.251c-.395 0-.766.184-1.001.5l-2.09 2.819-1.564-2.084 1.653-2.229a3.75 3.75 0 0 1 3.003-1.501h1.251V5.335c0-.504.305-.962.774-1.157zm-8.903 9.111l1.564 2.084-1.692 2.223a3.75 3.75 0 0 1-3.003 1.501H4.015a1.25 1.25 0 1 1 0-2.502h2.502c.395 0 .766-.184 1.001-.5zm10.264 7.947c-.36.36-.895.465-1.364.27a1.25 1.25 0 0 1-.774-1.157v-1.251h-1.251a3.75 3.75 0 0 1-3.003-1.501L7.518 9.588c-.235-.317-.606-.5-1.001-.5H4.015a1.25 1.25 0 1 1 0-2.502h2.502A3.75 3.75 0 0 1 9.52 8.087l6.005 8.007c.235.317.606.5 1.001.5h1.251v-1.251c0-.504.305-.962.774-1.157s1.005-.086 1.364.27l2.502 2.502a1.25 1.25 0 0 1 0 1.767l-2.502 2.502z" fill="#fff"/></svg>