<svg xmlns="http://www.w3.org/2000/svg" width="223.4" height="223.691" viewBox="0 0 59.108 59.185" xmlns:v="https://vecta.io/nano"><path d="M6.952 10.077c.958-2.74 2.907-9.171 8.359-9.041s9.359 2.193 11.758 6.633 1.606 3.829 1.606 3.829 5.203.374 6.076 3.973 9.346.524 9.346.524l14.069 14.858-.848 14.889-2.957 3.295-4.575.073-.398 5.657s-1.352 2.289-3.854 2.534-4.101-.799-4.401-2.534-.084-5.282-.084-5.282l-23.976.153s.685 3.89-.115 4.831-1.822 3.388-4.48 3.046-4.407-1.877-4.513-4.715-.41-3.359-.41-3.359l-2.77.025s-2.3.837-2.682-5.802-.436-28.848-.436-28.848z" fill="#fdeb34" stroke="#000" stroke-width=".159" stroke-linejoin="round" paint-order="stroke fill markers"/><path d="M10.186 58.643c-2.606-1.18-3.826-3.095-3.819-5.998.004-1.878-.01-1.918-.668-1.924-.928-.008-2.901-.939-3.805-1.796-.414-.392-1.009-1.188-1.323-1.77C.004 46.105 0 45.972 0 30.619c0-15.422.002-15.482.58-16.562.772-1.443 2.163-2.625 3.755-3.19 1.208-.429 1.315-.54 1.472-1.52.279-1.747 1.671-4.304 3.187-5.857 4.427-4.535 11.67-4.665 16.454-.297 1.566 1.43 3.2 4.377 3.446 6.218.132.981.224 1.1.859 1.1 1.463 0 3.13.81 4.348 2.112.659.705 1.274 1.58 1.365 1.944.151.603.235.638.935.394.434-.151 2.353-.226 4.409-.171 2.889.077 3.83.198 4.565.585 1.277.672 12.046 11.395 12.918 12.862l.708 1.191.081 7.891c.095 9.298.012 9.77-2.057 11.63-1.371 1.233-2.735 1.777-4.452 1.777h-1.075l.146 1.419c.219 2.123-.444 3.846-2.029 5.27-2.02 1.816-4.363 2.25-6.623 1.227-2.606-1.18-3.826-3.095-3.819-5.998l.005-1.918H28.936 18.692l.146 1.419c.219 2.123-.444 3.846-2.029 5.27-2.02 1.816-4.363 2.25-6.623 1.227zm3.848-4.332c.409-.409.649-.952.649-1.467s-.24-1.058-.649-1.467c-1.312-1.312-3.584-.382-3.584 1.467 0 1.088 1.029 2.117 2.117 2.117.516 0 1.058-.24 1.467-.649zm32.808 0c1.312-1.312.382-3.584-1.467-3.584-.516 0-1.058.24-1.467.649s-.649.952-.649 1.467.24 1.058.649 1.467.952.649 1.467.649 1.058-.24 1.467-.649zM31.617 31.268V16.043l-.649-.649c-.41-.41-.952-.649-1.469-.649-.701 0-.876.144-1.211.992-.989 2.502-2.832 5.813-5.288 9.498l-2.671 4.008 1.969.099c1.677.085 2.043.191 2.469.717.699.863.637 2.034-.149 2.82l-.649.649H17.93c-6.576 0-6.979-.082-7.332-1.49-.211-.839.251-2.097.869-2.37.241-.107.994-.264 1.673-.35l1.234-.156-2.501-3.704c-2.321-3.437-5.656-9.547-5.656-10.362 0-.564-.761-.411-1.467.296l-.649.649v14.576 14.576l.649.649.649.649h13.109 13.109zm22.634 14.576c.64-.64.649-.716.649-5.292V35.91l-4.829-.006c-4.284-.005-4.963-.067-6.019-.545-1.468-.664-2.518-1.636-3.265-3.021-.53-.982-.577-1.5-.655-7.21l-.084-6.152h-1.45c-1.186 0-1.568.118-2.099.649l-.649.649v13.109 13.109h8.876 8.876zm.649-14.749c0-.403-1.624-2.211-5.29-5.887l-5.29-5.305-.002 5.238c-.002 6.977-.403 6.536 5.939 6.536 4.606 0 4.642-.004 4.642-.582zm-35.19-8.48c1.187-1.783 2.833-4.61 3.658-6.284 1.373-2.783 1.5-3.19 1.487-4.77-.018-2.184-.737-3.742-2.478-5.371-2.8-2.619-7.036-2.682-9.916-.147-1.41 1.241-2.19 2.599-2.531 4.409-.331 1.754.065 3.305 1.62 6.34 1.369 2.673 5.464 9.064 5.807 9.064.107 0 1.166-1.459 2.353-3.241zm-3.368-7.999c-1.019-.443-1.921-1.813-1.921-2.915 0-1.639 1.668-3.307 3.305-3.307s3.305 1.669 3.305 3.307c0 1.605-1.681 3.323-3.226 3.297-.335-.006-.993-.178-1.463-.382z"/></svg>