<svg xmlns="http://www.w3.org/2000/svg" width="256.286" height="256.15" viewBox="0 0 67.809 67.773" xmlns:v="https://vecta.io/nano"><path d="M33.032.959C31.988.954 9.086 9.299 8.043 10.065c-1.75 1.285-2.133 3.063-1.217 5.655.587 1.664.587 1.664-.916 2.107-1.822.537-3.453 1.947-4.274 3.637v40.568c.802 1.573 2.479 3.135 3.986 3.597 1.928.592 49.708.605 51.697.014 3.63-1.078 4.831-3.585 4.854-10.131.015-4.339.015-4.339 1.315-4.976 1.009-.494 1.61-.885 1.967-1.755V34.639c-.438-1.421-1.224-1.941-2.613-2.29-.684-.172-.684-.171-.684-4.59 0-5.168-.3-6.344-2.082-8.16-1.036-1.055-3.167-2.111-4.262-2.111-.439 0-.486-.266-.563-3.241-.145-5.608-.356-5.737-9.73-5.911-6.85-.127-6.85-.127-7.697-2.512-1.24-3.491-2.58-4.853-4.791-4.865zM31.855 8.69c-.133.059-.261.126-.382.201s-.238.158-.348.248-.215.189-.315.295-.193.221-.282.344c.089-.123.182-.237.282-.344a3.25 3.25 0 0 1 .315-.295c.11-.091.226-.173.348-.248s.249-.142.382-.201zm-1.793 1.922a6.53 6.53 0 0 0-.34 1.033 10.22 10.22 0 0 0-.218 1.238 16.17 16.17 0 0 0-.099 1.449c.014-.519.047-1.002.099-1.449s.125-.86.218-1.238.206-.723.34-1.033zm28.267 14.937c-.019.578-.046 1.236-.033 1.985-.013-.749.013-1.407.033-1.985zm-8.757 6.83c-.481.094-.927.205-1.345.338s-.807.285-1.173.459-.71.371-1.037.592-.637.465-.936.735-.588.567-.872.891c-.271.31-.518.631-.741.962s-.421.67-.595 1.017-.325.701-.453 1.06a9.28 9.28 0 0 0-.314 1.091 9.29 9.29 0 0 1 .314-1.091c.128-.359.278-.713.453-1.06s.373-.687.595-1.017.469-.652.741-.962c.284-.324.572-.62.872-.891s.609-.515.936-.735.671-.417 1.037-.592.756-.327 1.173-.459.864-.244 1.345-.338zM44.23 47.875c.248.285.514.556.798.812a9.34 9.34 0 0 0 .906.719 9.43 9.43 0 0 0 1.01.615c.354.186.725.353 1.112.498-.387-.145-.758-.312-1.112-.498a9.43 9.43 0 0 1-1.01-.615 9.34 9.34 0 0 1-.906-.719c-.284-.256-.55-.527-.798-.812zm4.714 2.92c.304.071.634.122 1.046.159-.413-.037-.743-.088-1.046-.159z" fill="#f5e84e" fill-opacity=".946"/><path d="M5.001 67.304c-1.843-.566-3.945-2.713-4.507-4.602-.728-2.451-.622-38.851.119-40.831.745-1.992 2.602-3.702 4.688-4.316 1.565-.461 1.565-.461.953-2.193-.952-2.698-.554-4.548 1.267-5.885C8.607 8.68 32.442-.005 33.528 0c2.301.012 3.696 1.429 4.986 5.063.881 2.482.881 2.482 8.01 2.614 9.756.181 9.976.315 10.127 6.152.08 3.096.128 3.373.585 3.373 1.14 0 3.358 1.099 4.436 2.197 1.855 1.89 2.168 3.114 2.168 8.493 0 4.599 0 4.599.711 4.777 2.806.704 3.257 2.05 3.257 9.71 0 7.426-.171 8.035-2.585 9.217-1.353.662-1.353.662-1.368 5.179-.023 6.813-1.273 9.421-5.052 10.543-2.07.615-51.797.601-53.803-.015zm53.043-3.945c1.618-.837 1.825-1.593 1.826-6.668.001-4.564.001-4.564-4.619-4.564-4.026 0-4.809-.07-6.086-.548-6.448-2.413-8.526-10.578-4.005-15.741 2.362-2.698 5.051-3.549 11.223-3.552 3.523-.002 3.523-.002 3.44-4.628-.128-7.125 3.251-6.354-27.864-6.354-26.051 0-26.051 0-26.916.865s-.865.865-.936 19.913c-.079 21.06-.152 20.098 1.605 21.169 1.177.718 50.956.821 52.333.109zm5.735-21.003c.055-4.359-.006-5.719-.265-5.883-.501-.318-10.554-.266-12.084.062-5.439 1.166-6.488 8.612-1.56 11.062 1.079.537 1.459.562 7.487.497 6.35-.069 6.35-.069 6.422-5.738zm-12.62 1.136c-1.244-1.581.216-3.664 2.076-2.963 2.03.765 1.524 3.66-.64 3.66-.644 0-1.038-.192-1.436-.697zM29.754 13.919c.115-4.32 1.501-6.24 4.505-6.241.978 0 .978 0 .49-1.389-.741-2.111-.841-2.315-1.135-2.315-.429 0-23.59 8.467-23.838 8.715-.184.184.832 3.526 1.304 4.289.077.124 4.29.226 9.363.226 9.223 0 9.223 0 9.311-3.284zm23.185 1.036c.137-3.698 1.248-3.326-9.675-3.245-9.453.069-9.453.069-9.528 2.785s-.075 2.715 9.525 2.646 9.6-.07 9.679-2.185z"/></svg>